<?xml version="1.0" standalone="no"?><!DOCTYPE svg PUBLIC "-//W3C//DTD SVG 1.1//EN" "http://www.w3.org/Graphics/SVG/1.1/DTD/svg11.dtd"><svg class="icon" width="16px" height="13.61px" viewBox="0 0 1204 1024" version="1.1" xmlns="http://www.w3.org/2000/svg"><path d="M917.835294 915.335529c-0.391529 44.393412-19.576471 88.636235-94.900706 88.576-169.773176-0.150588-645.812706 0.602353-727.973647 0C2.921412 1003.248941 0 957.891765 0 915.335529c0-205.101176 139.896471-388.848941 327.710118-441.705411-82.642824-44.212706-124.054588-126.403765-124.054589-221.515294 0-138.842353 114.416941-251.783529 255.126589-251.78353 140.679529 0 255.126588 112.941176 255.126588 251.78353 0 95.171765-45.387294 177.302588-128.060235 221.515294 187.994353 52.826353 334.004706 238.471529 331.986823 441.705411zM1204.705882 820.344471c0 46.501647-33.520941 83.998118-88.937411 83.034353-27.828706-0.090353-25.660235 0.542118-51.049412 0-44.483765-0.963765-41.562353-27.888941-56.018824-83.034353-35.599059-135.559529-186.127059-313.042824-220.461176-333.583059-90.503529-54.091294 24.395294-18.100706 24.395294-192.120471 0-44.664471-10.179765-100.803765-28.400941-138.541176-14.245647-29.575529-26.021647-56.862118 28.400941-55.115294 108.212706 3.403294 196.005647 86.738824 196.005647 193.65647 0 67.041882-34.484706 126.132706-86.889412 160.918588 10.24 2.349176 20.630588 4.818824 32.195765 7.890824C1097.848471 505.283765 1204.705882 676.713412 1204.705882 820.344471z"  /></svg>