<?xml version="1.0" standalone="no"?><!DOCTYPE svg PUBLIC "-//W3C//DTD SVG 1.1//EN" "http://www.w3.org/Graphics/SVG/1.1/DTD/svg11.dtd"><svg t="1676558525514" class="icon" viewBox="0 0 1024 1024" version="1.1" xmlns="http://www.w3.org/2000/svg" p-id="11630" width="16" height="16" xmlns:xlink="http://www.w3.org/1999/xlink"><path d="M120 904c-31.2 0-56-24.8-56-56s24.8-56 56-56h784c31.2 0 56 24.8 56 56s-24.8 56-56 56H120z m0-336c-31.2 0-56-24.8-56-56s24.8-56 56-56h784c31.2 0 56 24.8 56 56s-24.8 56-56 56H120z m0-336c-31.2 0-56-24.8-56-56s24.8-56 56-56h784c31.2 0 56 24.8 56 56s-24.8 56-56 56H120z" p-id="11631" data-spm-anchor-id="a313x.7781069.0.i2" class="selected"></path></svg>